<svg xmlns="http://www.w3.org/2000/svg" width="284" height="42" viewBox="0 0 284 42"><g transform="translate(-116.182 -165.41)"><path d="M.989-3.673A5.456,5.456,0,0,0,2.213-3.1a5.75,5.75,0,0,0,1.979.314,3.455,3.455,0,0,0,1.745-.379,2.392,2.392,0,0,0,.99-1.165,6.393,6.393,0,0,0,.443-1.95q.1-1.165.1-2.735v-9.448h3.594v9.448a30.757,30.757,0,0,1-.221,3.86,7.812,7.812,0,0,1-.938,2.97A4.847,4.847,0,0,1,7.839-.27,8.193,8.193,0,0,1,4.193.41,6.881,6.881,0,0,1,.182-.742ZM19.584-18.459h3.177L29.793.122h-3.7L24.376-4.51H17.917L16.225.122h-3.7Zm4.141,11.41-2.552-7.3-2.656,7.3Zm8.1,7.171V-18.459h7.839a5.227,5.227,0,0,1,2.357.537,6.1,6.1,0,0,1,1.862,1.413,6.674,6.674,0,0,1,1.224,1.989,6.008,6.008,0,0,1,.443,2.238,6.476,6.476,0,0,1-.417,2.29A6.364,6.364,0,0,1,43.96-8.017,5.761,5.761,0,0,1,42.137-6.63a5.252,5.252,0,0,1-2.344.523H35.418V.122Zm3.594-9.4h4.167a2.055,2.055,0,0,0,1.654-.811,3.368,3.368,0,0,0,.664-2.2,3.636,3.636,0,0,0-.208-1.269,3.087,3.087,0,0,0-.547-.955,2.177,2.177,0,0,0-.794-.589,2.318,2.318,0,0,0-.925-.2H35.418Zm16.72-9.186h3.177L62.347.122h-3.7L56.93-4.51H50.471L48.778.122h-3.7Zm4.141,11.41-2.552-7.3-2.656,7.3Zm11.693-4.737V.122H64.378V-18.459h2.787L76.8-6.264V-18.433h3.594V.122H77.478ZM103.6-15.292H97.687V.122H94.119V-15.292H88.208v-3.167H103.6ZM118.73-3.045V.122H105.891V-18.459h12.6v3.167h-9.011v4.475h7.787v2.931h-7.787v4.842Zm1.3-6.255a9.665,9.665,0,0,1,.612-3.363,9.151,9.151,0,0,1,1.784-2.97,9.036,9.036,0,0,1,2.865-2.12,8.811,8.811,0,0,1,3.854-.811,8.372,8.372,0,0,1,4.414,1.125,7.173,7.173,0,0,1,2.774,2.931l-2.761,1.91a4.745,4.745,0,0,0-.885-1.322,4.432,4.432,0,0,0-1.12-.851,5.011,5.011,0,0,0-1.25-.458,5.9,5.9,0,0,0-1.276-.144,4.829,4.829,0,0,0-2.357.55A5.192,5.192,0,0,0,125.02-13.4a6.3,6.3,0,0,0-1,1.989,7.562,7.562,0,0,0-.339,2.211,7.246,7.246,0,0,0,.391,2.368,6.313,6.313,0,0,0,1.107,2,5.541,5.541,0,0,0,1.719,1.387,4.683,4.683,0,0,0,2.2.523,5.762,5.762,0,0,0,1.3-.157,4.936,4.936,0,0,0,1.289-.5,4.888,4.888,0,0,0,1.133-.877,4.049,4.049,0,0,0,.833-1.3l2.943,1.7a5.586,5.586,0,0,1-1.263,1.845,8.129,8.129,0,0,1-1.849,1.348,9.416,9.416,0,0,1-2.2.837,9.588,9.588,0,0,1-2.292.288,7.846,7.846,0,0,1-3.62-.837,9.433,9.433,0,0,1-2.826-2.185A10.149,10.149,0,0,1,120.7-5.806,9.6,9.6,0,0,1,120.032-9.3Zm34.533-9.16V.122H151v-7.93h-8.386V.122h-3.594V-18.459h3.594v7.511H151v-7.511Zm7.448,6.674V.122H158.42V-18.459h2.787l9.636,12.2V-18.433h3.594V.122H171.52ZM191.13-3.045V.122H178.291V-18.459h12.6v3.167h-9.011v4.475h7.787v2.931h-7.787v4.842Zm13.438-10.547a4.443,4.443,0,0,0-.664-.5,8.057,8.057,0,0,0-1.172-.615,10.061,10.061,0,0,0-1.5-.51,6.51,6.51,0,0,0-1.641-.209,3.666,3.666,0,0,0-2.214.55,1.822,1.822,0,0,0-.729,1.544,1.592,1.592,0,0,0,.273.955,2.367,2.367,0,0,0,.794.667,6.663,6.663,0,0,0,1.315.523q.794.236,1.836.5,1.354.366,2.461.785a6.659,6.659,0,0,1,1.875,1.047,4.319,4.319,0,0,1,1.185,1.5,5.01,5.01,0,0,1,.417,2.159,5.4,5.4,0,0,1-.56,2.552,4.72,4.72,0,0,1-1.51,1.714,6.549,6.549,0,0,1-2.188.955,10.926,10.926,0,0,1-2.591.3A13.856,13.856,0,0,1,195.844-.3a12.679,12.679,0,0,1-3.646-1.78l1.589-3.114a5.019,5.019,0,0,0,.846.615,12.914,12.914,0,0,0,1.445.759,11.208,11.208,0,0,0,1.849.641,8.316,8.316,0,0,0,2.083.262q2.969,0,2.969-1.91a1.571,1.571,0,0,0-.339-1.021,2.873,2.873,0,0,0-.964-.733,9.2,9.2,0,0,0-1.51-.576q-.885-.262-1.979-.576a16.771,16.771,0,0,1-2.3-.8,6.055,6.055,0,0,1-1.628-1.021,3.824,3.824,0,0,1-.977-1.361,4.734,4.734,0,0,1-.326-1.845,5.8,5.8,0,0,1,.521-2.512,5.074,5.074,0,0,1,1.445-1.832,6.536,6.536,0,0,1,2.149-1.112,8.838,8.838,0,0,1,2.63-.379,10.163,10.163,0,0,1,3.594.615,13.359,13.359,0,0,1,2.865,1.452ZM214.647-9.3a9.665,9.665,0,0,1,.612-3.363,9.151,9.151,0,0,1,1.784-2.97,9.036,9.036,0,0,1,2.865-2.12,8.811,8.811,0,0,1,3.854-.811,8.372,8.372,0,0,1,4.414,1.125,7.173,7.173,0,0,1,2.774,2.931l-2.761,1.91a4.745,4.745,0,0,0-.885-1.322,4.431,4.431,0,0,0-1.12-.851,5.011,5.011,0,0,0-1.25-.458,5.9,5.9,0,0,0-1.276-.144,4.829,4.829,0,0,0-2.357.55,5.192,5.192,0,0,0-1.667,1.426,6.3,6.3,0,0,0-1,1.989,7.563,7.563,0,0,0-.339,2.211,7.247,7.247,0,0,0,.391,2.368,6.312,6.312,0,0,0,1.107,2,5.541,5.541,0,0,0,1.719,1.387,4.683,4.683,0,0,0,2.2.523,5.762,5.762,0,0,0,1.3-.157,4.936,4.936,0,0,0,1.289-.5,4.888,4.888,0,0,0,1.133-.877,4.048,4.048,0,0,0,.833-1.3l2.943,1.7a5.586,5.586,0,0,1-1.263,1.845A8.13,8.13,0,0,1,228.1-.846a9.416,9.416,0,0,1-2.2.837,9.588,9.588,0,0,1-2.292.288,7.845,7.845,0,0,1-3.62-.837,9.433,9.433,0,0,1-2.826-2.185,10.149,10.149,0,0,1-1.849-3.062A9.6,9.6,0,0,1,214.647-9.3ZM241.341.253a8.367,8.367,0,0,1-3.685-.8,9.054,9.054,0,0,1-2.839-2.12,9.654,9.654,0,0,1-1.836-3.023,9.662,9.662,0,0,1-.651-3.481,9.379,9.379,0,0,1,.69-3.559,9.828,9.828,0,0,1,1.9-3.01,9.072,9.072,0,0,1,2.878-2.081,8.507,8.507,0,0,1,3.62-.772,8.086,8.086,0,0,1,3.659.824,9.145,9.145,0,0,1,2.826,2.159,9.95,9.95,0,0,1,1.823,3.036,9.593,9.593,0,0,1,.651,3.455A9.436,9.436,0,0,1,249.7-5.57a9.634,9.634,0,0,1-1.875,2.983,9.017,9.017,0,0,1-2.865,2.067A8.507,8.507,0,0,1,241.341.253Zm-5.365-9.421a7.51,7.51,0,0,0,.365,2.329A6.227,6.227,0,0,0,237.4-4.85a5.25,5.25,0,0,0,1.693,1.387,4.851,4.851,0,0,0,2.279.523,4.81,4.81,0,0,0,2.3-.537A5.254,5.254,0,0,0,245.365-4.9a6.369,6.369,0,0,0,1.042-2,7.469,7.469,0,0,0,.352-2.264,7.273,7.273,0,0,0-.378-2.329,6.432,6.432,0,0,0-1.068-1.989,5.1,5.1,0,0,0-1.693-1.374,4.895,4.895,0,0,0-2.253-.51,4.887,4.887,0,0,0-2.318.537,5.144,5.144,0,0,0-1.693,1.413,6.358,6.358,0,0,0-1.029,1.989A7.469,7.469,0,0,0,235.976-9.169ZM253.139.122V-18.459h8.178a5.227,5.227,0,0,1,2.357.537,6.1,6.1,0,0,1,1.862,1.413,6.674,6.674,0,0,1,1.224,1.989,6.008,6.008,0,0,1,.443,2.238A6.2,6.2,0,0,1,266.3-9a5.165,5.165,0,0,1-2.435,2.133L268.087.122h-4.037l-3.776-6.229h-3.542V.122Zm3.594-9.4h4.505a1.893,1.893,0,0,0,.925-.236,2.368,2.368,0,0,0,.742-.641,3.2,3.2,0,0,0,.495-.955,3.718,3.718,0,0,0,.182-1.178,3.371,3.371,0,0,0-.208-1.2,3.145,3.145,0,0,0-.56-.955,2.533,2.533,0,0,0-.807-.628,2.088,2.088,0,0,0-.925-.222h-4.349Zm13.725,9.4V-18.459H278.3a5.227,5.227,0,0,1,2.357.537,6.1,6.1,0,0,1,1.862,1.413,6.674,6.674,0,0,1,1.224,1.989,6.008,6.008,0,0,1,.443,2.238,6.476,6.476,0,0,1-.417,2.29,6.364,6.364,0,0,1-1.172,1.976A5.76,5.76,0,0,1,280.77-6.63a5.252,5.252,0,0,1-2.344.523h-4.375V.122Zm3.594-9.4h4.167a2.054,2.054,0,0,0,1.654-.811,3.368,3.368,0,0,0,.664-2.2,3.636,3.636,0,0,0-.208-1.269,3.086,3.086,0,0,0-.547-.955,2.177,2.177,0,0,0-.794-.589,2.318,2.318,0,0,0-.925-.2h-4.011Z" transform="translate(116 184)" fill="#fff"/><path d="M3.36.58H2.291A.178.178,0,0,1,2.183.56a.171.171,0,0,1-.02-.107l.023-4.2V-6.033L2.162-9.117a.194.194,0,0,1,.023-.121A.221.221,0,0,1,2.3-9.256l1.648.023H8.052l1.654-.023q.093,0,.111.029a.213.213,0,0,1,.018.11L9.811-6.385v2.623L9.835.39q0,.1-.023.115a.2.2,0,0,1-.105.017H8.643q-.1,0-.117-.023A.213.213,0,0,1,8.508.39V-.187H3.489v.64q0,.092-.023.11A.2.2,0,0,1,3.36.58Zm.129-1.937h5.02V-4.211H3.489Zm0-6.7V-5.37h5.02V-8.062ZM14.428-6.529,12.9-6.506q-.093,0-.111-.023a.2.2,0,0,1-.018-.1v-.951q0-.092.023-.11a.2.2,0,0,1,.105-.017l1.531.023h2.787v-.79a10.866,10.866,0,0,0-.082-1.534q.771.017,1.315.081.181.017.181.115,0,.023-.07.311a5.363,5.363,0,0,0-.058.992v.824h2.98l1.543-.023q.093,0,.111.023a.2.2,0,0,1,.018.1v.951q0,.092-.023.11a.2.2,0,0,1-.105.017l-1.543-.023H19a10.64,10.64,0,0,0,4.558,4.214,3.448,3.448,0,0,0-.584.853q-.146.282-.228.282a.621.621,0,0,1-.251-.133,11.367,11.367,0,0,1-4.05-4.318q0,.035.041,3.188h.619l1.473-.023q.105,0,.123.023a.155.155,0,0,1,.023.1v.9q0,.086-.023.107a.225.225,0,0,1-.123.02l-1.473-.023h-.6q.006.594.023,1.355.012.542.012.617,0,.121-.134.121H17.3q-.134,0-.134-.121,0-.45.035-1.972h-.514l-1.473.023q-.093,0-.111-.023a.2.2,0,0,1-.018-.1v-.9q0-.092.023-.11a.2.2,0,0,1,.105-.017l1.473.023h.526q.041-1.51.041-3.061a11.489,11.489,0,0,1-3.769,4.191.628.628,0,0,1-.28.144q-.093,0-.228-.259a2.656,2.656,0,0,0-.619-.79,10.881,10.881,0,0,0,2.577-1.937A10.682,10.682,0,0,0,16.73-6.529ZM30.8-5a9.658,9.658,0,0,1-.228,1.758,5.3,5.3,0,0,1-.479,1.251A5.5,5.5,0,0,1,29.072-.614a5.507,5.507,0,0,1-1.087.859.752.752,0,0,1-.356.144.354.354,0,0,1-.251-.115,2.916,2.916,0,0,0-1.069-.628,7.629,7.629,0,0,0,1.519-1.015,4.293,4.293,0,0,0,.865-1.09,4.132,4.132,0,0,0,.467-1.216A8.436,8.436,0,0,0,29.3-5H27.027q-.573,0-1.794.069-.134.017-.158-.225a6.508,6.508,0,0,1-.093-1.13q.672.058,2.034.058h5.376q1.28,0,2.332-.069.129,0,.129.236.012.121.012.455t-.012.45q0,.2-.175.2Q33.408-5,32.4-5ZM26.442-9.019q1.046.058,1.987.058h2.682q1.227,0,2.016-.046.146,0,.146.225.018.219.018.427t-.018.432q0,.225-.158.225-.976-.035-2-.035H28.429q-.339,0-1.7.046-.187,0-.2-.2-.018-.161-.041-.553T26.442-9.019Zm15.48,1.309,2.15-.046a1.179,1.179,0,0,0,.6-.144.238.238,0,0,1,.152-.046.359.359,0,0,1,.193.069,5.422,5.422,0,0,1,.812.64.379.379,0,0,1,.158.271.333.333,0,0,1-.146.248,1.474,1.474,0,0,0-.392.507,16.523,16.523,0,0,1-2.372,3.649A15.3,15.3,0,0,1,41.191-.8,12.675,12.675,0,0,1,39.444.378a.363.363,0,0,1-.193.058.433.433,0,0,1-.275-.127,3.222,3.222,0,0,0-1.139-.542,18.182,18.182,0,0,0,2.378-1.51,14.864,14.864,0,0,0,1.607-1.5,12.191,12.191,0,0,0,1.262-1.6A15.511,15.511,0,0,0,44.037-6.6l-2.9.081A17.76,17.76,0,0,1,38.877-4.1a.362.362,0,0,1-.251.133.283.283,0,0,1-.175-.069A3.05,3.05,0,0,0,37.3-4.545a14.824,14.824,0,0,0,3.22-3.505,5.881,5.881,0,0,0,.707-1.6,6.191,6.191,0,0,1,1.4.628.246.246,0,0,1,.123.2.234.234,0,0,1-.134.2,1.816,1.816,0,0,0-.3.317Q42.185-8.1,41.922-7.711ZM54.561-4.24v2.508L54.6.39q0,.156-.228.156-.245.017-.514.017T53.34.545q-.228,0-.228-.167l.058-2.1V-3.248a22.82,22.82,0,0,1-3.29,1.977.506.506,0,0,1-.2.058.327.327,0,0,1-.24-.133,3.088,3.088,0,0,0-.958-.721,24.159,24.159,0,0,0,3.851-2.122A17.22,17.22,0,0,0,54.655-6.1l-2.764.058q-.888.035-1.584.081-.164,0-.2-.225a9.9,9.9,0,0,1-.134-1.153,13.69,13.69,0,0,0,1.467.092h.2l3.471-.035a2.116,2.116,0,0,0,.853-.133.4.4,0,0,1,.175-.046.287.287,0,0,1,.2.092,4.338,4.338,0,0,1,.6.7.362.362,0,0,1,.076.2q0,.144-.181.213a1.359,1.359,0,0,0-.38.271Q55.5-5.024,54.561-4.24ZM52.043-8.852q.123-.19.351-.582.164-.277.222-.363a.223.223,0,0,1,.175-.121.333.333,0,0,1,.076.012A14.274,14.274,0,0,1,55.4-8.875q.134.069.134.127a.207.207,0,0,1-.047.121A9.861,9.861,0,0,1,55-7.757q-.07.121-.158.121a.22.22,0,0,1-.129-.046A11.273,11.273,0,0,0,52.043-8.852Zm3.126,5.3q.444-.64.678-.911a.172.172,0,0,1,.123-.081.418.418,0,0,1,.117.035A12.388,12.388,0,0,1,58.693-3.07q.111.069.111.138a.3.3,0,0,1-.047.144,8.124,8.124,0,0,1-.59.853.2.2,0,0,1-.14.092.411.411,0,0,1-.169-.081A14.491,14.491,0,0,0,55.169-3.554Zm11.979-.928a29.06,29.06,0,0,1,3.313,2.854.254.254,0,0,1,.093.167.288.288,0,0,1-.082.173,6.338,6.338,0,0,1-.8.807.223.223,0,0,1-.146.069A.277.277,0,0,1,69.357-.5a21.6,21.6,0,0,0-3.109-2.929,17.29,17.29,0,0,1-4.02,3.119,1.026,1.026,0,0,1-.275.092.261.261,0,0,1-.2-.1A3.306,3.306,0,0,0,60.744-1.1a16.675,16.675,0,0,0,2.478-1.487,15.353,15.353,0,0,0,1.736-1.522,15.239,15.239,0,0,0,2.25-2.963l-3.085.012q-.923,0-1.893.075-.117.012-.158-.2a5.591,5.591,0,0,1-.105-1.228q.643.046,2.022.046h3.29a1.993,1.993,0,0,0,.824-.11.227.227,0,0,1,.134-.046.5.5,0,0,1,.2.092,4.212,4.212,0,0,1,.777.83.335.335,0,0,1,.058.15.312.312,0,0,1-.158.236,2.275,2.275,0,0,0-.438.525A20.452,20.452,0,0,1,67.148-4.482Zm9.081-1.689a7.418,7.418,0,0,0,1.005-2.542,3.366,3.366,0,0,0,.088-.732,7.978,7.978,0,0,1,1.028.213q.193.063.193.156a.483.483,0,0,1-.1.225,1.566,1.566,0,0,0-.14.438q-.023.1-.134.507h.865v-.381A13.292,13.292,0,0,0,78.947-10q.649.017,1.215.081.2.023.2.121a.691.691,0,0,1-.076.259A4.393,4.393,0,0,0,80.2-8.31v.4h.877l1.449-.023q.093,0,.111.023a.23.23,0,0,1,.018.115v.842q0,.092-.023.11a.2.2,0,0,1-.105.017L81.08-6.846H80.2V-5.3h1.233l1.607-.023a.1.1,0,0,1,.117.115v.853a.23.23,0,0,1-.018.115q-.018.023-.1.023L81.436-4.24h-.847a9.729,9.729,0,0,0,2.846,2.929,3.416,3.416,0,0,0-.5.842q-.1.236-.187.236t-.251-.156a10.238,10.238,0,0,1-2.326-2.906q.012,1.176.047,2.7.023,1.193.023,1.2,0,.121-.129.121h-.982q-.134,0-.134-.121,0-.046.035-1.453.023-1.349.041-2.358A9.349,9.349,0,0,1,76.592-.331a.65.65,0,0,1-.275.167q-.082,0-.2-.259a2.358,2.358,0,0,0-.514-.686A9.008,9.008,0,0,0,78.614-4.24h-.4L76.6-4.217q-.111,0-.123-.035-.24.45-.31.628-.093.19-.146.19t-.152-.213A9.8,9.8,0,0,1,75.2-5.185q.006,2.012.053,4.2.006.473.023,1.234.006.34.006.386a.18.18,0,0,1-.023.115.2.2,0,0,1-.105.017h-.97q-.105,0-.123-.029t-.023-.1q0-.052.018-.865.053-2.5.07-4.508A10.637,10.637,0,0,1,72.9-1.986q-.117.19-.181.19t-.14-.2a3.831,3.831,0,0,0-.409-.882,10.923,10.923,0,0,0,1.817-3.788h-.263l-1.122.023a.187.187,0,0,1-.117-.023.213.213,0,0,1-.018-.11v-.836a.181.181,0,0,1,.023-.115.221.221,0,0,1,.111-.017l1.122.023h.362v-.7a9.9,9.9,0,0,0-.1-1.608,11.818,11.818,0,0,1,1.2.081q.2.023.2.121a.688.688,0,0,1-.076.248,4.15,4.15,0,0,0-.082,1.142v.721l.982-.023a.187.187,0,0,1,.117.023.213.213,0,0,1,.018.11v.836q0,.1-.023.115a.221.221,0,0,1-.111.017l-.269-.006q-.28-.012-.637-.017a9,9,0,0,0,1.157,1.943v-.484q0-.115.134-.115l1.613.023h.818V-6.846H77.8a8.924,8.924,0,0,1-.421.934q-.123.236-.193.236a.663.663,0,0,1-.275-.156A2.415,2.415,0,0,0,76.229-6.171Zm10.063-.461-1.537.023q-.082,0-.1-.02a.246.246,0,0,1-.018-.124v-.928a.245.245,0,0,1,.018-.127.169.169,0,0,1,.1-.017l1.537.023h4.3l-.012-.484a12.784,12.784,0,0,0-.1-1.689q.912.023,1.3.069.193.023.193.144a1.791,1.791,0,0,1-.07.248,2.661,2.661,0,0,0-.064.738q0,.144.006.455V-7.8h1.473l1.531-.023q.093,0,.111.029a.23.23,0,0,1,.018.115v.928a.208.208,0,0,1-.023.127.185.185,0,0,1-.105.017l-1.531-.023H91.89a14.974,14.974,0,0,0,.684,4.041q.573,1.747,1.075,1.747.427,0,.538-1.73a3.333,3.333,0,0,0,.777.536,1.2,1.2,0,0,1,.263.167.217.217,0,0,1,.058.161,2.206,2.206,0,0,1-.023.225Q94.923.672,93.819.655q-1.467-.017-2.349-2.6a18.218,18.218,0,0,1-.824-4.687Zm2.4,2.617h-.467V-1.7q1.362-.329,2.332-.663a6.968,6.968,0,0,0-.035.744.74.74,0,0,1-.053.369.83.83,0,0,1-.3.127A41.181,41.181,0,0,1,85.883.026a1.639,1.639,0,0,0-.5.179.565.565,0,0,1-.216.081q-.117,0-.169-.156-.111-.329-.31-1.193A7.086,7.086,0,0,0,85.83-1.2l1.151-.213v-2.6h-.409l-1.42.029q-.134,0-.134-.121v-.882a.208.208,0,0,1,.023-.127.221.221,0,0,1,.111-.017l1.42.023h2.121l1.414-.023q.1,0,.123.029a.23.23,0,0,1,.018.115v.882q0,.086-.023.1a.261.261,0,0,1-.117.017Zm4.622-5.759a5.473,5.473,0,0,1,1.028,1.084.181.181,0,0,1,.041.1q0,.058-.123.138l-.567.381A.343.343,0,0,1,93.544-8q-.053,0-.111-.092A5.121,5.121,0,0,0,92.5-9.221q-.058-.058-.058-.092t.111-.121l.5-.34a.364.364,0,0,1,.14-.069A.193.193,0,0,1,93.316-9.774ZM98.587-3.1,97-3.081a.2.2,0,0,1-.123-.023.2.2,0,0,1-.018-.1V-4.1q0-.092.023-.11A.239.239,0,0,1,97-4.223l1.584.023h6.375l1.584-.023a.2.2,0,0,1,.123.023.2.2,0,0,1,.018.1v.888a.171.171,0,0,1-.02.107.208.208,0,0,1-.12.02L104.962-3.1h-3.693A22.371,22.371,0,0,1,100.2-.885q1.87-.1,3.687-.294-.549-.663-.871-1a.162.162,0,0,1-.053-.1q0-.058.123-.115l.766-.392a.29.29,0,0,1,.129-.046.193.193,0,0,1,.123.069A21.83,21.83,0,0,1,106.33-.02a.181.181,0,0,1,.041.1q0,.058-.1.121l-.83.536A.364.364,0,0,1,105.3.8q-.047,0-.1-.081-.24-.4-.6-.922-2.32.288-6.463.6a.984.984,0,0,0-.432.11.321.321,0,0,1-.2.069q-.129,0-.164-.167A12.219,12.219,0,0,1,97.091-.8q.275.023.579.023T98.394-.8l.386-.012A19.718,19.718,0,0,0,99.832-3.1Zm8.853-3.009a3.692,3.692,0,0,0-.514.882q-.117.294-.2.294a.945.945,0,0,1-.275-.092,13.553,13.553,0,0,1-2.285-1.251V-5.4q0,.092-.023.11a.2.2,0,0,1-.105.017L102.677-5.3h-1.841l-1.356.023q-.093,0-.111-.023a.2.2,0,0,1-.018-.1v-.9A13.9,13.9,0,0,1,97.184-5.03a.868.868,0,0,1-.286.11q-.082,0-.216-.294A2.748,2.748,0,0,0,96.144-6a9.691,9.691,0,0,0,4.593-3.43,3.67,3.67,0,0,0,.421-.767,9.156,9.156,0,0,1,1.291.248q.216.052.216.161a.2.2,0,0,1-.117.19.966.966,0,0,0-.169.1A11.1,11.1,0,0,0,107.44-6.114Zm-7.918-.306q.21.023,1.315.023h1.841q1.028,0,1.291-.023a10.9,10.9,0,0,1-2.261-2.162A11.02,11.02,0,0,1,99.522-6.419ZM114.067.332,112.46.355q-.093,0-.111-.023a.2.2,0,0,1-.018-.1V-.706a.185.185,0,0,1,.02-.112.178.178,0,0,1,.108-.02l1.607.023h1.005v-4.41h-.538l-1.508.012a.185.185,0,0,1-.105-.017.178.178,0,0,1-.018-.1v-.934q0-.086.023-.1a.242.242,0,0,1,.1-.012l1.508.012h.538V-8.252a12.825,12.825,0,0,0-.093-1.781q.771.023,1.326.081.193.023.193.121a.564.564,0,0,1-.058.248,4.425,4.425,0,0,0-.1,1.3v1.914h.754l1.508-.012a.218.218,0,0,1,.117.017.163.163,0,0,1,.018.1v.934q0,.092-.029.11a.265.265,0,0,1-.105.012l-1.508-.012h-.754v4.41h1.087l1.6-.023a.2.2,0,0,1,.123.023.213.213,0,0,1,.018.11V.228q0,.092-.023.11a.239.239,0,0,1-.117.017l-1.6-.023Zm-6-3.874a8.4,8.4,0,0,0,1.969-1.689,7.392,7.392,0,0,0,1.157-1.8h-1.356l-1.268.023a.187.187,0,0,1-.117-.023.2.2,0,0,1-.018-.1v-.876q0-.092.029-.115a.185.185,0,0,1,.105-.017l1.268.029h.228V-8.6a8.338,8.338,0,0,0-.093-1.441q.643.017,1.245.081.193.017.193.121a.732.732,0,0,1-.07.248,3.047,3.047,0,0,0-.076.94v.536h.5A.424.424,0,0,0,112-8.172a.364.364,0,0,1,.134-.046q.117,0,.444.306t.321.427a.252.252,0,0,1-.117.19,1.494,1.494,0,0,0-.28.34,11.807,11.807,0,0,1-1.017,1.724,7.041,7.041,0,0,0,1.759,1.384,2.739,2.739,0,0,0-.479.767q-.123.259-.228.259a.475.475,0,0,1-.24-.144,8.736,8.736,0,0,1-1.028-1.1V-.74l.023,1.389a.181.181,0,0,1-.023.115.28.28,0,0,1-.123.017h-.958a.2.2,0,0,1-.123-.023.213.213,0,0,1-.018-.11L110.07-.74V-3.565a11.846,11.846,0,0,1-1.139.98.641.641,0,0,1-.251.156q-.076,0-.187-.271A3.262,3.262,0,0,0,108.071-3.542Z" transform="translate(116.02 206.605)" fill="#fff"/></g></svg>