<svg id="bc5b94f7-44ae-4285-a72c-813303a98c03" data-name="レイヤー 1" xmlns="http://www.w3.org/2000/svg" viewBox="0 0 174 40"><path d="M.65674,1.14893H14.35742V26.75049h11.501V38.85107H.65674Z"/><path d="M74.52881,20.1001c0,12.10058-9.35059,19.35107-20.85108,19.35107-11.501,0-20.85156-7.25049-20.85156-19.35107C32.82617,8.249,42.22705.54883,53.67773.54883S74.52881,8.249,74.52881,20.1001ZM46.627,20.2998c0,4.3003,2.90039,7.25049,7.05078,7.25049,4.14991,0,7.0503-2.95019,7.0503-7.25049,0-4-2.7002-7.35009-7.0503-7.35009C49.32715,12.94971,46.627,16.2998,46.627,20.2998Z"/><path d="M123.77393,16.6499c-.1001,6.15039-.1001,11.3003-4.5503,16.10059a22.10378,22.10378,0,0,1-16.001,6.70068c-11.50049,0-20.80127-7.10058-20.80127-19.20117,0-12.30078,9.05078-19.70117,20.90136-19.70117,6.5503,0,15.55079,3.25,18.501,9.70068L109.023,14.94971a5.73916,5.73916,0,0,0-5.2002-2.90039c-4.90039,0-7.60058,4.20019-7.60058,8.75048,0,4.1504,2.6001,8.05079,7.05029,8.05079,2.15039,0,4.90039-1,5.55078-3.3003h-6.20068V16.6499Z"/><path d="M173.34326,20.1001c0,12.10058-9.35058,19.35107-20.85107,19.35107-11.501,0-20.85157-7.25049-20.85157-19.35107,0-11.85108,9.40088-19.55127,20.85157-19.55127S173.34326,8.249,173.34326,20.1001Zm-27.90185.1997c0,4.3003,2.90039,7.25049,7.05078,7.25049,4.1499,0,7.05029-2.95019,7.05029-7.25049,0-4-2.70019-7.35009-7.05029-7.35009C148.1416,12.94971,145.44141,16.2998,145.44141,20.2998Z"/></svg>